<?xml version="1.0" standalone="no"?>
<!DOCTYPE svg PUBLIC "-//W3C//DTD SVG 20010904//EN"
 "http://www.w3.org/TR/2001/REC-SVG-20010904/DTD/svg10.dtd">
<svg version="1.0" xmlns="http://www.w3.org/2000/svg"
 width="50.000000pt" height="50.000000pt" viewBox="0 0 50.000000 50.000000"
 preserveAspectRatio="xMidYMid meet">

<g transform="translate(0.000000,50.000000) scale(0.100000,-0.100000)"
fill="#000000" stroke="none">
<path d="M143 475 c-15 -18 -32 -25 -58 -25 -45 0 -85 -36 -85 -78 0 -33 31
-78 60 -87 18 -6 20 -18 22 -143 l3 -137 25 0 c24 0 25 2 28 85 4 123 16 131
22 15 5 -99 5 -100 30 -100 25 0 25 0 28 107 3 120 1 118 74 98 l37 -11 3 -97
c3 -96 3 -97 28 -97 25 0 25 1 28 92 1 51 7 93 12 93 5 0 11 -42 12 -93 3 -91
3 -92 28 -92 l25 0 3 131 3 130 -57 0 c-51 -1 -58 2 -85 32 -16 18 -29 41 -29
51 0 37 -79 42 -165 10 -63 -24 -88 -20 -83 13 2 18 11 24 43 29 68 9 115 49
101 85 -8 21 -28 17 -53 -11z"/>
<path d="M320 401 c0 -65 2 -71 31 -95 41 -35 83 -34 120 3 26 27 29 36 29 95
0 36 -3 66 -7 66 -3 0 -15 -7 -25 -17 -10 -9 -35 -16 -58 -16 -23 0 -48 7 -58
16 -10 10 -22 17 -25 17 -4 0 -7 -31 -7 -69z m70 -26 c0 -8 -7 -15 -15 -15 -8
0 -15 7 -15 15 0 8 7 15 15 15 8 0 15 -7 15 -15z m70 0 c0 -8 -7 -15 -15 -15
-8 0 -15 7 -15 15 0 8 7 15 15 15 8 0 15 -7 15 -15z"/>
</g>
</svg>
