<?xml version="1.0" standalone="no"?>
<!DOCTYPE svg PUBLIC "-//W3C//DTD SVG 20010904//EN"
 "http://www.w3.org/TR/2001/REC-SVG-20010904/DTD/svg10.dtd">
<svg version="1.0" xmlns="http://www.w3.org/2000/svg"
 width="24.000000pt" height="24.000000pt" viewBox="0 0 24.000000 24.000000"
 preserveAspectRatio="xMidYMid meet">

<g transform="translate(0.000000,24.000000) scale(0.100000,-0.100000)"
fill="#000000" stroke="none">
<path d="M36 204 c-20 -20 -20 -48 -1 -68 9 -9 15 -34 15 -65 0 -28 5 -51 10
-51 6 0 10 13 10 29 0 17 5 33 10 36 6 4 10 -8 10 -29 0 -20 5 -36 10 -36 6 0
10 16 10 36 0 21 4 33 10 29 6 -3 10 -19 10 -36 0 -16 5 -29 10 -29 6 0 10 14
10 30 0 17 5 30 10 30 6 0 10 -13 10 -30 0 -16 5 -30 10 -30 6 0 10 22 10 49
0 31 5 53 15 61 8 7 15 25 15 41 0 28 -2 29 -45 29 -32 0 -45 -4 -45 -14 0 -7
-12 -16 -27 -18 -16 -3 -36 -9 -45 -13 -14 -5 -18 -2 -18 14 0 12 7 24 15 27
16 7 21 24 6 24 -5 0 -17 -7 -25 -16z m162 -41 c5 -17 -26 -29 -40 -15 -6 6
-7 15 -3 22 9 14 37 9 43 -7z m-49 -34 c13 -11 22 -22 19 -24 -10 -10 -98 8
-98 20 0 31 44 34 79 4z"/>
</g>
</svg>
